<?xml version="1.0" encoding="utf-8"?>
<!-- Generator: Adobe Illustrator 16.0.0, SVG Export Plug-In . SVG Version: 6.00 Build 0)  -->
<!DOCTYPE svg PUBLIC "-//W3C//DTD SVG 1.1//EN" "http://www.w3.org/Graphics/SVG/1.1/DTD/svg11.dtd">
<svg version="1.1" id="Capa_1" xmlns="http://www.w3.org/2000/svg" xmlns:xlink="http://www.w3.org/1999/xlink" x="0px" y="0px"
	 width="136px" height="122.5px" viewBox="0 0 136 122.5" enable-background="new 0 0 136 122.5" xml:space="preserve">
<g>
	<g>
		<path fill="#FFFFFF" d="M119.333,44.333h-50c-1,0-1.667,0.667-1.667,1.667v63.333c0,1,0.667,1.667,1.667,1.667h50
			c1,0,1.667-0.667,1.667-1.667V46C121,45,120.333,44.333,119.333,44.333z M117.667,47.667v10H71c0-1,0-2.667,0-3.333h20V51H71
			c0-0.333,0-3.333,0-3.333H117.667z M71,107.667c0,0,0-30.5,0-46.667h46.667v46.667H71z"/>
		<rect x="79.333" y="64.333" fill="#FFFFFF" width="5" height="3.333"/>
		<rect x="87.667" y="64.333" fill="#FFFFFF" width="5" height="3.333"/>
		<rect x="96" y="64.333" fill="#FFFFFF" width="5" height="3.333"/>
		<rect x="104.333" y="64.333" fill="#FFFFFF" width="5" height="3.333"/>
		<rect x="76" y="72.667" fill="#FFFFFF" width="6.667" height="3.333"/>
		<rect x="86" y="72.667" fill="#FFFFFF" width="6.667" height="3.333"/>
		<rect x="96" y="72.667" fill="#FFFFFF" width="6.667" height="3.333"/>
		<rect x="106" y="72.667" fill="#FFFFFF" width="6.667" height="3.333"/>
		<rect x="76" y="79.333" fill="#FFFFFF" width="6.667" height="3.333"/>
		<rect x="86" y="79.333" fill="#FFFFFF" width="6.667" height="3.333"/>
		<rect x="96" y="79.333" fill="#FFFFFF" width="6.667" height="3.333"/>
		<rect x="106" y="79.333" fill="#FFFFFF" width="6.667" height="3.333"/>
		<rect x="76" y="86" fill="#FFFFFF" width="6.667" height="3.333"/>
		<rect x="86" y="86" fill="#FFFFFF" width="6.667" height="3.333"/>
		<rect x="96" y="86" fill="#FFFFFF" width="6.667" height="3.333"/>
		<rect x="106" y="86" fill="#FFFFFF" width="6.667" height="3.333"/>
		<rect x="76" y="92.667" fill="#FFFFFF" width="6.667" height="3.333"/>
		<rect x="86" y="92.667" fill="#FFFFFF" width="6.667" height="3.333"/>
		<rect x="96" y="92.667" fill="#FFFFFF" width="6.667" height="3.333"/>
		<rect x="106" y="92.667" fill="#FFFFFF" width="6.667" height="3.333"/>
		<rect x="76" y="99.333" fill="#FFFFFF" width="6.667" height="3.333"/>
		<rect x="86" y="99.333" fill="#FFFFFF" width="6.667" height="3.333"/>
		<rect x="96" y="99.333" fill="#FFFFFF" width="6.667" height="3.333"/>
		<rect x="106" y="99.333" fill="#FFFFFF" width="6.667" height="3.333"/>
		<path fill="#FFFFFF" d="M24.333,34.333h18.333c1,0,1.667-0.667,1.667-1.667V14.333H101v23.333h3.333v-25
			c0-1-0.667-1.667-1.667-1.667h-60l0,0c-0.167,0-0.333,0-0.5,0.167H42c-0.167,0.167-0.333,0.167-0.5,0.333l-20,20
			c-0.167,0.167-0.167,0.333-0.333,0.5v0.167c0,0.167-0.167,0.333-0.167,0.5l0,0V51h3.333C24.333,51,24.333,36.167,24.333,34.333z
			 M41,31H26.667l7.167-7.167L41,16.667V31L41,31z"/>
		<path fill="#FFFFFF" d="M62.667,82.667H44.334V76v-8.333v-8.333c0-1-0.667-1.667-1.667-1.667h-20c-1,0-1.667,0.667-1.667,1.667
			v8.333V76v8.333v8.333V101v8.333c0,1,0.667,1.667,1.667,1.667h20h20c1,0,1.667-0.667,1.667-1.667V101v-8.333v-8.333
			C64.333,83.333,63.667,82.667,62.667,82.667z M24.333,86H41v5H24.333V86z M41,82.667H24.333v-5H41V82.667z M41,74.333H24.333v-5
			H41V74.333z M24.333,94.333H41v5H24.333V94.333z M44.333,94.333H61v5H44.333V94.333z M61,91H44.333v-5H61V91z M24.333,61H41v5
			H24.333V61z M24.333,102.667H41v5H24.333V102.667z M61,107.667H44.333v-5H61V107.667z"/>
		<rect x="84.333" y="19.333" fill="#FFFFFF" width="11.667" height="3.333"/>
		<rect x="66" y="27.667" fill="#FFFFFF" width="30" height="3.333"/>
		<rect x="94.333" y="51" fill="#FFFFFF" width="5" height="3.333"/>
	</g>
</g>
</svg>
