<?xml version="1.0" encoding="utf-8"?>
<!-- Generator: Adobe Illustrator 16.0.0, SVG Export Plug-In . SVG Version: 6.00 Build 0)  -->
<!DOCTYPE svg PUBLIC "-//W3C//DTD SVG 1.1//EN" "http://www.w3.org/Graphics/SVG/1.1/DTD/svg11.dtd">
<svg version="1.1" id="Layer_1" xmlns="http://www.w3.org/2000/svg" xmlns:xlink="http://www.w3.org/1999/xlink" x="0px" y="0px"
	 width="148.493px" height="139.607px" viewBox="0 0 148.493 139.607" enable-background="new 0 0 148.493 139.607"
	 xml:space="preserve">
<g>
	<rect x="38.872" y="59.494" fill="#FFFFFF" width="45.002" height="6.186"/>
	<path fill="#FFFFFF" d="M98.499,66.61V42.234L74.022,19.803H24.247v91.752H74.09c5.306,5.08,12.772,8.248,21.033,8.248
		c16.059,0,29.123-11.973,29.123-26.688C124.247,79.448,112.973,68.148,98.499,66.61z M75.999,30.363l10.978,10.06H75.999V30.363
		L75.999,30.363z M30.997,105.37V25.989h38.252v20.618h22.5V66.61c-6.505,0.691-12.361,3.354-16.841,7.317H38.872v6.186h30.829
		c-1.544,2.525-2.655,5.303-3.235,8.248H38.872v6.186h27.172c0.225,3.885,1.36,7.553,3.215,10.824H30.997L30.997,105.37z
		 M95.124,113.616c-12.336,0-22.373-9.195-22.373-20.5s10.037-20.502,22.373-20.502s22.373,9.197,22.373,20.502
		S107.459,113.616,95.124,113.616z"/>
	<polygon fill="#FFFFFF" points="102.542,81.947 95.124,88.743 87.708,81.947 82.934,86.32 90.351,93.116 82.934,99.911 
		87.708,104.286 95.124,97.49 102.542,104.286 107.314,99.911 99.897,93.116 107.314,86.32 	"/>
</g>
</svg>
