<?xml version="1.0" encoding="utf-8"?>
<!-- Generator: Adobe Illustrator 16.0.0, SVG Export Plug-In . SVG Version: 6.00 Build 0)  -->
<!DOCTYPE svg PUBLIC "-//W3C//DTD SVG 1.1//EN" "http://www.w3.org/Graphics/SVG/1.1/DTD/svg11.dtd">
<svg version="1.1" id="Layer_1" xmlns="http://www.w3.org/2000/svg" xmlns:xlink="http://www.w3.org/1999/xlink" x="0px" y="0px"
	 width="128px" height="126.5px" viewBox="0 0 128 126.5" enable-background="new 0 0 128 126.5" xml:space="preserve">
<g>
	<path fill="#FFFFFF" d="M27.298,20.439c-2.368,0-4.295,1.929-4.295,4.299c0,2.371,1.927,4.3,4.295,4.3s4.295-1.929,4.295-4.3
		C31.594,22.368,29.667,20.439,27.298,20.439z M27.298,26.107c-0.754,0-1.368-0.614-1.368-1.369c0-0.755,0.614-1.369,1.368-1.369
		s1.368,0.614,1.368,1.369C28.666,25.494,28.053,26.107,27.298,26.107z"/>
	<path fill="#FFFFFF" d="M38.232,20.439c-2.367,0-4.295,1.929-4.295,4.299c0,2.371,1.928,4.3,4.295,4.3
		c2.369,0,4.295-1.929,4.295-4.3C42.527,22.368,40.602,20.439,38.232,20.439z M38.232,26.107c-0.754,0-1.367-0.614-1.367-1.369
		c0-0.755,0.613-1.369,1.367-1.369s1.369,0.614,1.369,1.369C39.602,25.494,38.986,26.107,38.232,26.107z"/>
	<path fill="#FFFFFF" d="M49.168,20.439c-2.368,0-4.295,1.929-4.295,4.299c0,2.371,1.927,4.3,4.295,4.3s4.295-1.929,4.295-4.3
		C53.463,22.368,51.536,20.439,49.168,20.439z M49.168,26.107c-0.754,0-1.368-0.614-1.368-1.369c0-0.755,0.614-1.369,1.368-1.369
		s1.368,0.614,1.368,1.369C50.536,25.494,49.922,26.107,49.168,26.107z"/>
	<path fill="#FFFFFF" d="M114.93,43.718c0.809,0,1.465-0.656,1.465-1.465l0.11-20.99c0-3.555-2.89-6.448-6.44-6.448H22.947
		c-3.551,0-6.441,2.893-6.441,6.448v70.889c0,3.223,2.374,5.9,5.462,6.375c0.32,0.05,0.647,0.074,0.979,0.074h28.478v5.256h-4.419
		c-2.947,0-5.346,2.399-5.346,5.351v3.166c0,1.347,1.094,2.442,2.439,2.442h6.979c0.808,0,1.463-0.656,1.463-1.467
		c0-0.809-0.656-1.465-1.463-1.465h-6.491v-2.677c0-1.335,1.085-2.421,2.418-2.421h38.89c1.334,0,2.418,1.086,2.418,2.421v2.677
		H60.163c-0.808,0-1.463,0.656-1.463,1.465c0,0.811,0.655,1.467,1.463,1.467H88.8c1.345,0,2.439-1.096,2.439-2.442v-3.166
		c0-2.951-2.398-5.351-5.347-5.351h-4.418v-5.256h28.479c0.332,0,0.66-0.024,0.979-0.074c3.09-0.475,5.463-3.151,5.463-6.375V51.337
		c0-0.81-0.655-1.466-1.465-1.466c-0.808,0-1.463,0.656-1.463,1.466v32.329H67.718V34.745h45.749v7.508
		C113.467,43.063,114.122,43.718,114.93,43.718z M19.54,34.745h45.25v48.815H19.54V34.745z M78.548,103.857H54.352v-5.256h24.196
		V103.857z M113.467,86.598v5.557c0,1.818-1.385,3.318-3.154,3.5c-0.119,0.011-0.237,0.018-0.358,0.018H22.947
		c-0.121,0-0.241-0.006-0.358-0.018c-1.771-0.182-3.155-1.682-3.155-3.5v-5.557H113.467z M66.255,31.814H19.54V21.263
		c0-1.939,1.576-3.517,3.515-3.517h86.898c1.938,0,3.514,1.578,3.514,3.518v10.551L66.255,31.814L66.255,31.814z"/>
	<path fill="#FFFFFF" d="M25.666,40.584h7.415c0.808,0,1.463-0.655,1.463-1.465c0-0.809-0.655-1.465-1.463-1.465h-7.415
		c-0.809,0-1.464,0.656-1.464,1.465C24.202,39.929,24.857,40.584,25.666,40.584z"/>
	<path fill="#FFFFFF" d="M38.154,40.584h3.514c0.809,0,1.463-0.655,1.463-1.465c0-0.809-0.654-1.465-1.463-1.465h-3.514
		c-0.809,0-1.463,0.656-1.463,1.465C36.691,39.929,37.346,40.584,38.154,40.584z"/>
	<path fill="#FFFFFF" d="M36.789,42.826h-4.878c-0.808,0-1.463,0.656-1.463,1.466c0,0.809,0.655,1.465,1.463,1.465h4.878
		c0.809,0,1.464-0.656,1.464-1.465C38.252,43.482,37.598,42.826,36.789,42.826z"/>
	<path fill="#FFFFFF" d="M59.814,48.183h-4.879c-0.808,0-1.463,0.656-1.463,1.465s0.655,1.465,1.463,1.465h4.879
		c0.809,0,1.463-0.656,1.463-1.465S60.624,48.183,59.814,48.183z"/>
	<path fill="#FFFFFF" d="M39.813,44.292c0,0.809,0.655,1.465,1.463,1.465h11.709c0.809,0,1.464-0.656,1.464-1.465
		c0-0.81-0.655-1.466-1.464-1.466H41.275C40.469,42.826,39.813,43.482,39.813,44.292z"/>
	<path fill="#FFFFFF" d="M35.13,49.647c0,0.809,0.655,1.465,1.464,1.465h2.537c0.809,0,1.463-0.656,1.463-1.465
		s-0.654-1.465-1.463-1.465h-2.537C35.785,48.183,35.13,48.839,35.13,49.647z"/>
	<path fill="#FFFFFF" d="M50.448,51.112c0.809,0,1.464-0.656,1.464-1.465s-0.655-1.465-1.464-1.465h-7.024
		c-0.809,0-1.464,0.656-1.464,1.465s0.655,1.465,1.464,1.465H50.448z"/>
	<path fill="#FFFFFF" d="M34.544,68.637c0-0.81-0.655-1.465-1.463-1.465h-7.415c-0.809,0-1.464,0.655-1.464,1.465
		c0,0.809,0.655,1.465,1.464,1.465h7.415C33.889,70.102,34.544,69.445,34.544,68.637z"/>
	<path fill="#FFFFFF" d="M38.154,67.172c-0.809,0-1.463,0.655-1.463,1.465c0,0.809,0.656,1.465,1.463,1.465h3.514
		c0.809,0,1.463-0.656,1.463-1.465c0-0.81-0.654-1.465-1.463-1.465H38.154z"/>
	<path fill="#FFFFFF" d="M38.252,73.809c0-0.81-0.654-1.466-1.464-1.466H31.91c-0.809,0-1.463,0.656-1.463,1.466
		s0.654,1.465,1.463,1.465h4.878C37.598,75.273,38.252,74.618,38.252,73.809z"/>
	<path fill="#FFFFFF" d="M39.131,77.7h-2.537c-0.809,0-1.464,0.655-1.464,1.465s0.655,1.465,1.464,1.465h2.537
		c0.809,0,1.463-0.655,1.463-1.465S39.938,77.7,39.131,77.7z"/>
	<path fill="#FFFFFF" d="M59.814,77.7h-4.879c-0.808,0-1.463,0.655-1.463,1.465s0.655,1.465,1.463,1.465h4.879
		c0.809,0,1.463-0.655,1.463-1.465S60.624,77.7,59.814,77.7z"/>
	<path fill="#FFFFFF" d="M54.449,73.809c0-0.81-0.655-1.466-1.465-1.466H41.277c-0.809,0-1.463,0.656-1.463,1.466
		s0.654,1.465,1.463,1.465h11.707C53.793,75.273,54.449,74.618,54.449,73.809z"/>
	<path fill="#FFFFFF" d="M50.448,77.7h-7.024c-0.809,0-1.464,0.655-1.464,1.465s0.655,1.465,1.464,1.465h7.024
		c0.809,0,1.464-0.655,1.464-1.465S51.257,77.7,50.448,77.7z"/>
	<path fill="#FFFFFF" d="M25.666,57.826h4.098c0.809,0,1.463-0.656,1.463-1.465c0-0.81-0.656-1.465-1.463-1.465h-4.098
		c-0.809,0-1.464,0.655-1.464,1.465C24.202,57.17,24.857,57.826,25.666,57.826z"/>
	<path fill="#FFFFFF" d="M50.352,56.361c0-0.81-0.656-1.465-1.463-1.465H33.863c-0.809,0-1.463,0.655-1.463,1.465
		c0,0.809,0.654,1.465,1.463,1.465h15.025C49.695,57.826,50.352,57.17,50.352,56.361z"/>
	<path fill="#FFFFFF" d="M47.619,61.532c0-0.809-0.655-1.465-1.465-1.465H31.91c-0.809,0-1.463,0.656-1.463,1.465
		c0,0.81,0.654,1.466,1.463,1.466h14.244C46.964,62.998,47.619,62.342,47.619,61.532z"/>
	<path fill="#FFFFFF" d="M50.253,62.998h2.731c0.809,0,1.464-0.656,1.464-1.466c0-0.809-0.655-1.465-1.464-1.465h-2.731
		c-0.81,0-1.464,0.656-1.464,1.465C48.79,62.342,49.445,62.998,50.253,62.998z"/>
	<path fill="#FFFFFF" d="M83.5,71.449h-9.366c-0.809,0-1.464,0.656-1.464,1.465c0,0.811,0.655,1.465,1.464,1.465H83.5
		c0.809,0,1.464-0.654,1.464-1.465C84.964,72.105,84.309,71.449,83.5,71.449z"/>
	<path fill="#FFFFFF" d="M107.307,71.449H88.77c-0.809,0-1.463,0.656-1.463,1.465c0,0.811,0.654,1.465,1.463,1.465h18.537
		c0.81,0,1.465-0.654,1.465-1.465C108.771,72.105,108.115,71.449,107.307,71.449z"/>
	<path fill="#FFFFFF" d="M83.5,77.114h-9.366c-0.809,0-1.464,0.655-1.464,1.466c0,0.809,0.655,1.465,1.464,1.465H83.5
		c0.809,0,1.464-0.656,1.464-1.465C84.964,77.77,84.309,77.114,83.5,77.114z"/>
	<path fill="#FFFFFF" d="M107.307,77.114H88.77c-0.809,0-1.463,0.655-1.463,1.466c0,0.809,0.654,1.465,1.463,1.465h18.537
		c0.81,0,1.465-0.656,1.465-1.465C108.771,77.77,108.115,77.114,107.307,77.114z"/>
	<path fill="#FFFFFF" d="M108.814,41.44c0-2.087-1.695-3.786-3.78-3.786H76.407c-2.085,0-3.782,1.699-3.782,3.786v19.843v0.001
		v3.471c0,2.087,1.697,3.786,3.782,3.786h28.627c2.085,0,3.78-1.699,3.78-3.786V41.44z M105.889,64.755
		c0,0.472-0.384,0.854-0.854,0.854H76.408c-0.473,0-0.854-0.383-0.854-0.854v-2.864l10.719-10.726l7.397,8.347
		c0.537,0.605,1.462,0.661,2.065,0.124c0.605-0.537,0.66-1.462,0.125-2.068l-0.672-0.757l3.309-3.31l7.393,8.34v2.914H105.889z
		 M105.889,57.425l-5.633-6.354c-0.422-0.476-1.027-0.76-1.664-0.779c-0.639-0.019-1.258,0.228-1.708,0.678l-3.642,3.645
		l-5.211-5.878c-0.422-0.477-1.028-0.761-1.664-0.779c-0.635-0.018-1.258,0.228-1.708,0.678l-9.106,9.113V41.44
		c0-0.472,0.383-0.856,0.854-0.856h28.627c0.472,0,0.854,0.384,0.854,0.856v15.985H105.889z"/>
</g>
</svg>
